<svg width="66" height="63" viewBox="0 0 66 63" fill="none" xmlns="http://www.w3.org/2000/svg">
<path d="M55.1375 47.3787C57.1277 44.2183 57.8835 40.4354 57.2606 36.7529C56.6377 33.0704 54.6798 29.7465 51.7609 27.4164C48.8421 25.0864 45.167 23.9135 41.438 24.122C37.709 24.3305 34.1876 25.9057 31.5467 28.5467C28.9057 31.1876 27.3305 34.709 27.122 38.438C26.9135 42.167 28.0864 45.8421 30.4164 48.7609C32.7465 51.6798 36.0704 53.6377 39.7529 54.2606C43.4354 54.8835 47.2183 54.1277 50.3787 52.1375L60.875 62.5662L65.5662 57.875L55.1375 47.3787ZM48.3875 45.2863C47.2066 46.4641 45.7032 47.2656 44.0671 47.5894C42.4309 47.9133 40.7355 47.7449 39.195 47.1057C37.6545 46.4664 36.338 45.385 35.4118 43.9979C34.4856 42.6108 33.9913 40.9804 33.9913 39.3125C33.9913 37.6446 34.4856 36.0142 35.4118 34.6271C36.338 33.24 37.6545 32.1586 39.195 31.5193C40.7355 30.8801 42.4309 30.7117 44.0671 31.0356C45.7032 31.3594 47.2066 32.1609 48.3875 33.3387C49.9446 34.9436 50.8071 37.0972 50.7881 39.3333C50.7692 41.5693 49.8704 43.708 48.2863 45.2863H48.3875ZM54.125 0.5H6.875C5.08479 0.5 3.3679 1.21116 2.10203 2.47703C0.836158 3.7429 0.125 5.45979 0.125 7.25V47.75C0.125 49.5402 0.836158 51.2571 2.10203 52.523C3.3679 53.7888 5.08479 54.5 6.875 54.5H26.4838C24.5895 52.5486 23.0783 50.2589 22.0287 47.75H6.875V34.25H20.9825C21.5092 31.8574 22.4455 29.5738 23.75 27.5H6.875V14H27.125V23.4838C29.0764 21.5895 31.3661 20.0783 33.875 19.0287V14H54.125V20.75C56.8408 22.4802 59.1448 24.7842 60.875 27.5V7.25C60.875 5.45979 60.1638 3.7429 58.898 2.47703C57.6321 1.21116 55.9152 0.5 54.125 0.5Z" fill="#474646"/>
</svg>
