<svg width="72" height="72" viewBox="0 0 72 72" fill="none" xmlns="http://www.w3.org/2000/svg">
<path d="M54 13.5L72 4.5V27L54 18V13.5ZM49.5 22.5C49.5 23.5781 49.1484 24.5391 48.4453 25.3828C47.7422 26.2266 46.8516 26.7422 45.7734 26.9297L46.6172 31.5H25.3828L26.2266 26.9297C25.1484 26.7422 24.2578 26.2266 23.5547 25.3828C22.8516 24.5391 22.5 23.5781 22.5 22.5V9H18L36 0L54 9H49.5V22.5ZM36 11.25C36 10.6406 35.7773 10.1133 35.332 9.66797C34.8867 9.22266 34.3594 9 33.75 9H29.25C28.6406 9 28.1133 9.22266 27.668 9.66797C27.2227 10.1133 27 10.6406 27 11.25V20.25C27 20.8594 27.2227 21.3867 27.668 21.832C28.1133 22.2773 28.6406 22.5 29.25 22.5H33.75C34.3594 22.5 34.8867 22.2773 35.332 21.832C35.7773 21.3867 36 20.8594 36 20.25V11.25ZM45 11.25C45 10.6406 44.7773 10.1133 44.332 9.66797C43.8867 9.22266 43.3594 9 42.75 9C42.1406 9 41.6133 9.22266 41.168 9.66797C40.7227 10.1133 40.5 10.6406 40.5 11.25V20.25C40.5 20.8594 40.7227 21.3867 41.168 21.832C41.6133 22.2773 42.1406 22.5 42.75 22.5C43.3594 22.5 43.8867 22.2773 44.332 21.832C44.7773 21.3867 45 20.8594 45 20.25V11.25ZM18 18L0 27V4.5L18 13.5V18ZM47.4609 36L48.2344 40.5H23.6953L24.5391 36H47.4609ZM49.9219 49.5H22.0781L22.9219 45H49.0781L49.9219 49.5ZM20.1797 59.9062L21.3047 54H50.6953L51.8203 59.9062C57.8672 61.0312 62.7422 62.6719 66.4453 64.8281C70.1484 66.9844 72 69.375 72 72H0C0 69.375 1.85156 66.9844 5.55469 64.8281C9.25781 62.6719 14.1328 61.0312 20.1797 59.9062Z" fill="black"/>
</svg>
